<svg width="16" height="17" viewBox="0 0 16 17" fill="none" xmlns="http://www.w3.org/2000/svg">
<g id="Group">
<path id="Vector" d="M7.33337 5.16671H8.66671V6.50004H7.33337V5.16671ZM7.33337 7.83337H8.66671V11.8334H7.33337V7.83337ZM8.00004 1.83337C4.32004 1.83337 1.33337 4.82004 1.33337 8.50004C1.33337 12.18 4.32004 15.1667 8.00004 15.1667C11.68 15.1667 14.6667 12.18 14.6667 8.50004C14.6667 4.82004 11.68 1.83337 8.00004 1.83337ZM8.00004 13.8334C5.06004 13.8334 2.66671 11.44 2.66671 8.50004C2.66671 5.56004 5.06004 3.16671 8.00004 3.16671C10.94 3.16671 13.3334 5.56004 13.3334 8.50004C13.3334 11.44 10.94 13.8334 8.00004 13.8334Z" fill="#2E4CE5"/>
</g>
</svg>
