<svg width="16" height="12" viewBox="0 0 16 12" fill="none" xmlns="http://www.w3.org/2000/svg">
<g id="Group">
<g id="Group_2">
<path id="Vector" d="M14 0.333333C13.26 0.1 12.4467 0 11.6667 0C10.3667 0 8.96666 0.266667 7.99999 1C7.03332 0.266667 5.63332 0 4.33332 0C3.03332 0 1.63332 0.266667 0.666656 1V10.7667C0.666656 10.9333 0.833323 11.1 0.99999 11.1C1.06666 11.1 1.09999 11.0667 1.16666 11.0667C2.06666 10.6333 3.36666 10.3333 4.33332 10.3333C5.63332 10.3333 7.03332 10.6 7.99999 11.3333C8.89999 10.7667 10.5333 10.3333 11.6667 10.3333C12.7667 10.3333 13.9 10.5333 14.8333 11.0333C14.9 11.0667 14.9333 11.0667 15 11.0667C15.1667 11.0667 15.3333 10.9 15.3333 10.7333V1C14.9333 0.7 14.5 0.5 14 0.333333ZM14 9.33333C13.2667 9.1 12.4667 9 11.6667 9C10.5333 9 8.89999 9.43333 7.99999 10V2.33333C8.89999 1.76667 10.5333 1.33333 11.6667 1.33333C12.4667 1.33333 13.2667 1.43333 14 1.66667V9.33333Z" fill="white"/>
<g id="Group_3">
<path id="Vector_2" d="M11.6667 4C12.2533 4 12.82 4.06 13.3333 4.17333V3.16C12.8067 3.06 12.24 3 11.6667 3C10.5333 3 9.50666 3.19333 8.66666 3.55333V4.66C9.41999 4.23333 10.4667 4 11.6667 4Z" fill="white"/>
<path id="Vector_3" d="M8.66666 5.32665V6.43332C9.41999 6.00665 10.4667 5.77332 11.6667 5.77332C12.2533 5.77332 12.82 5.83332 13.3333 5.94665V4.93332C12.8067 4.83332 12.24 4.77332 11.6667 4.77332C10.5333 4.77332 9.50666 4.97332 8.66666 5.32665Z" fill="white"/>
<path id="Vector_4" d="M11.6667 6.55334C10.5333 6.55334 9.50666 6.74668 8.66666 7.10668V8.21334C9.41999 7.78668 10.4667 7.55334 11.6667 7.55334C12.2533 7.55334 12.82 7.61334 13.3333 7.72668V6.71334C12.8067 6.60668 12.24 6.55334 11.6667 6.55334Z" fill="white"/>
</g>
</g>
</g>
</svg>
