<svg width="16" height="16" viewBox="0 0 16 16" fill="none" xmlns="http://www.w3.org/2000/svg">
<g id="visibility" clip-path="url(#clip0_165_17297)">
<path id="Vector" d="M8 3.00012C4.66666 3.00012 1.82 5.07346 0.666664 8.00012C1.82 10.9268 4.66666 13.0001 8 13.0001C11.3333 13.0001 14.18 10.9268 15.3333 8.00012C14.18 5.07346 11.3333 3.00012 8 3.00012ZM8 11.3335C6.16 11.3335 4.66666 9.84012 4.66666 8.00012C4.66666 6.16012 6.16 4.66679 8 4.66679C9.84 4.66679 11.3333 6.16012 11.3333 8.00012C11.3333 9.84012 9.84 11.3335 8 11.3335ZM8 6.00012C6.89333 6.00012 6 6.89346 6 8.00012C6 9.10679 6.89333 10.0001 8 10.0001C9.10666 10.0001 10 9.10679 10 8.00012C10 6.89346 9.10666 6.00012 8 6.00012Z" fill="#697D94"/>
</g>
<defs>
<clipPath id="clip0_165_17297">
<rect width="16" height="16" fill="white"/>
</clipPath>
</defs>
</svg>
